<svg width="260" height="94.80782298875374" viewBox="0 0 260 94.80782298875374" class="css-1j8o68f"><defs id="SvgjsDefs5682"><linearGradient id="SvgjsLinearGradient5687"><stop id="SvgjsStop5688" stop-color="#ef4136" offset="0"></stop><stop id="SvgjsStop5689" stop-color="#fbb040" offset="1"></stop></linearGradient></defs><g id="SvgjsG5683" featurekey="symbolFeature-0" transform="matrix(0.900001922611529,0,0,0.900001922611529,85,0)" fill="#ed1b24"><path xmlns="http://www.w3.org/2000/svg" d="M99.488,22.251c-0.988-3.925-3.097-7.198-5.911-10.04c-3.139-3.169-6.859-5.49-10.923-7.274  C76.073,2.047,69.133,0.698,62,0.195C61.153,0.135,60.308,0.065,59.461,0c-1.904,0-3.809,0-5.714,0  c-0.604,0.062-1.207,0.133-1.812,0.185C42.616,0.968,33.957,3.803,25.91,8.55c-1.716,1.012-3.443,2.008-5.192,2.96  c-2.587,1.408-5.383,1.908-8.306,1.777c-0.9-0.04-1.799-0.094-2.849-0.149c2.214,1.541,4.483,2.503,7.119,2.431  c0.018,0.04,0.037,0.081,0.055,0.121c-0.34,0.271-0.646,0.608-1.026,0.799c-2.533,1.272-5.191,2.144-8.058,2.054  c-1.127-0.036-2.247-0.349-3.369-0.539c-0.106-0.018-0.208-0.062-0.33-0.058c1.955,1.667,4.059,3.084,6.489,3.977  C8.604,24.68,4.261,26.429,0,25.856c0,0.033,0,0.065,0,0.097c1.603,0.559,3.543,1.385,5.208,1.671  c2.667,0.458,3.772,2.537,4.042,3.167c0.664,1.556,2.216,3.6,3.362,4.807c3.354,3.536,6.749,5.702,11.592,8.138  c0.492,0.269,1.009,0.491,1.514,0.734c-0.159-0.105-13.125-8.873-13.125-14.267c0-0.876-0.426-7.538,8.397-13.161  c7.35-4.684,15.352-7.739,23.839-9.591c0.66-0.144,1.324-0.268,1.986-0.402c-4.213,3.552-6.686,7.99-7.083,13.468  c-0.397,5.475,1.313,10.271,5.078,14.276c7.049,7.499,19.07,7.947,26.684,0.51c3.504-3.423,5.411-7.629,5.6-12.529  c0.255-6.591-2.399-11.867-7.543-15.972c0.09-0.01,0.138-0.024,0.183-0.018c3.962,0.552,15.384,1.432,23.28,9.328  c2.97,2.969,5.305,6.212,6.197,10.362c0.207,0.961,0.302,1.947,0.454,2.957c0.029-0.078,0.06-0.13,0.069-0.186  C100.16,26.897,100.071,24.566,99.488,22.251z M51.254,24.856c-0.114,1.282-1.247,2.229-2.528,2.114s-2.229-1.246-2.114-2.528  s1.247-2.228,2.529-2.113C50.422,22.442,51.368,23.574,51.254,24.856z M69.779,18.764c-0.326,3.653-3.552,6.35-7.205,6.023  c-3.653-0.326-6.35-3.552-6.023-7.206c0.327-3.653,3.553-6.35,7.206-6.023S70.106,15.111,69.779,18.764z"></path></g><g id="SvgjsG5684" featurekey="nameFeature-0" transform="matrix(1.1633630648394444,0,0,1.1633630648394444,-1.7683135005707793,47.482213156054904)" fill="url(#SvgjsLinearGradient5687)"><path d="M15.56 10.760000000000002 c3.3333 0 6.1332 0.94 8.4 2.82 s3.5734 4.3668 3.92 7.46 l-6.08 0 c-0.21332 -1.4133 -0.92 -2.6 -2.12 -3.56 s-2.5733 -1.44 -4.12 -1.44 c-2.4533 0 -4.36 0.88 -5.72 2.64 s-2.04 4.1468 -2.04 7.16 c0 2.9333 0.68668 5.26 2.06 6.98 s3.2733 2.58 5.7 2.58 c1.8133 0 3.28 -0.55332 4.4 -1.66 s1.8133 -2.6867 2.08 -4.74 l6.08 0 c-0.32 3.6267 -1.62 6.48 -3.9 8.56 s-5.1668 3.12 -8.66 3.12 c-4.1868 0 -7.5732 -1.38 -10.16 -4.14 s-3.88 -6.3268 -3.88 -10.7 c0 -4.4268 1.28 -8.0468 3.84 -10.86 s5.96 -4.22 10.2 -4.22 z M49.735 10.760000000000002 c4.2132 0 7.6068 1.4 10.18 4.2 s3.86 6.4268 3.86 10.88 c0 4.3468 -1.2933 7.9068 -3.88 10.68 s-5.9732 4.16 -10.16 4.16 c-4.2132 0 -7.6068 -1.3867 -10.18 -4.16 s-3.86 -6.3332 -3.86 -10.68 c0 -4.4268 1.2933 -8.0468 3.88 -10.86 s5.9732 -4.22 10.16 -4.22 z M41.974999999999994 25.84 c0 2.88 0.67996 5.1932 2.04 6.94 s3.2667 2.62 5.72 2.62 c2.4 0 4.2932 -0.86 5.68 -2.58 s2.08 -4.0468 2.08 -6.98 c0 -3.0667 -0.68668 -5.4668 -2.06 -7.2 s-3.2866 -2.6 -5.74 -2.6 c-2.4 0 -4.2868 0.86668 -5.66 2.6 s-2.06 4.1332 -2.06 7.2 z M78.83 11.440000000000001 l11.92 19.16 l0.08 0 l0 -19.16 l5.88 0 l0 28.56 l-6.28 0 l-11.88 -19.12 l-0.08 0 l0 19.12 l-5.88 0 l0 -28.56 l6.24 0 z M127.925 11.440000000000001 l0 5.28 l-8.56 0 l0 23.28 l-6.28 0 l0 -23.28 l-8.56 0 l0 -5.28 l23.4 0 z M151.14 11.440000000000001 c2.4 0 4.3936 0.74 5.98 2.22 s2.38 3.3667 2.38 5.66 c0 3.5733 -1.5067 5.96 -4.52 7.16 l0 0.08 c1.0133 0.29332 1.8066 0.78 2.38 1.46 s1.0066 1.4733 1.3 2.38 s0.48 2.36 0.56 4.36 c0.10668 2.6133 0.48 4.36 1.12 5.24 l-6.28 0 c-0.34668 -0.88 -0.61336 -2.5333 -0.80004 -4.96 c-0.21332 -2.56 -0.68 -4.2332 -1.4 -5.02 s-1.8933 -1.18 -3.52 -1.18 l-6.32 0 l0 11.16 l-6.28 0 l0 -28.56 l15.4 0 z M148.94 24.36 c1.3333 0 2.38 -0.3 3.14 -0.9 s1.14 -1.66 1.14 -3.18 c0 -1.44 -0.37332 -2.46 -1.12 -3.06 s-1.8134 -0.9 -3.2 -0.9 l-6.88 0 l0 8.04 l6.92 0 z M181.95499999999998 10.760000000000002 c4.2132 0 7.6068 1.4 10.18 4.2 s3.86 6.4268 3.86 10.88 c0 4.3468 -1.2933 7.9068 -3.88 10.68 s-5.9732 4.16 -10.16 4.16 c-4.2132 0 -7.6068 -1.3867 -10.18 -4.16 s-3.86 -6.3332 -3.86 -10.68 c0 -4.4268 1.2933 -8.0468 3.88 -10.86 s5.9732 -4.22 10.16 -4.22 z M174.195 25.84 c0 2.88 0.67996 5.1932 2.04 6.94 s3.2667 2.62 5.72 2.62 c2.4 0 4.2932 -0.86 5.68 -2.58 s2.08 -4.0468 2.08 -6.98 c0 -3.0667 -0.68668 -5.4668 -2.06 -7.2 s-3.2866 -2.6 -5.74 -2.6 c-2.4 0 -4.2868 0.86668 -5.66 2.6 s-2.06 4.1332 -2.06 7.2 z M211.08999999999997 11.440000000000001 l0 23.28 l13.92 0 l0 5.28 l-20.2 0 l0 -28.56 l6.28 0 z"></path></g></svg>
